<svg width="39" height="39" viewBox="0 0 39 39" fill="none" xmlns="http://www.w3.org/2000/svg">
<g clip-path="url(#clip0_391_385)">
<path d="M16.2627 14.6239C14.917 14.6239 13.7681 15.0999 12.8159 16.0521C11.8638 17.0042 11.3877 18.1532 11.3877 19.4989C11.3877 20.8446 11.8638 21.9935 12.8159 22.9457C13.7681 23.8978 14.917 24.3739 16.2627 24.3739C17.6084 24.3739 18.7574 23.8978 19.7095 22.9457C20.6617 21.9935 21.1377 20.8446 21.1377 19.4989C21.1377 18.1532 20.6617 17.0042 19.7095 16.0521C18.7574 15.0999 17.6084 14.6239 16.2627 14.6239ZM16.2627 11.3866C17.3799 11.3866 18.4336 11.5897 19.4239 11.9959C20.4141 12.4276 21.2774 13.0116 22.0137 13.7479C22.75 14.4842 23.334 15.3475 23.7657 16.3377C24.1719 17.328 24.375 18.3817 24.375 19.4989C24.375 20.6161 24.1719 21.6698 23.7657 22.66C23.334 23.6503 22.75 24.5135 22.0137 25.2499C21.2774 25.9862 20.4141 26.5702 19.4239 27.0018C18.4336 27.4081 17.3799 27.6112 16.2627 27.6112C15.1455 27.6112 14.0918 27.4081 13.1016 27.0018C12.1113 26.5702 11.2481 25.9862 10.5117 25.2499C9.77541 24.5135 9.19142 23.6503 8.75978 22.66C8.35353 21.6698 8.1504 20.6161 8.1504 19.4989C8.1504 18.3817 8.35353 17.328 8.75978 16.3377C9.19142 15.3475 9.77541 14.4842 10.5117 13.7479C11.2481 13.0116 12.1113 12.4276 13.1016 11.9959C14.0918 11.5897 15.1455 11.3866 16.2627 11.3866ZM26.8125 10.9676C26.8125 11.5262 26.6158 12.0023 26.2222 12.3958C25.8287 12.7894 25.3526 12.9862 24.794 12.9862C24.2354 12.9862 23.7593 12.7894 23.3658 12.3958C22.9722 12.0023 22.7754 11.5262 22.7754 10.9676C22.7754 10.409 22.9722 9.93295 23.3658 9.53939C23.7593 9.14584 24.2354 8.94906 24.794 8.94906C25.3526 8.94906 25.8287 9.14584 26.2222 9.53939C26.6158 9.93295 26.8125 10.409 26.8125 10.9676ZM16.2627 6.51156C14.2569 6.51156 12.8985 6.51791 12.1875 6.5306C11.4766 6.5433 10.6514 6.56234 9.71193 6.58773C9.07716 6.61312 8.53126 6.67025 8.07423 6.75912C7.6172 6.84798 7.18556 6.96859 6.77931 7.12093C6.42384 7.27328 6.1128 7.43832 5.8462 7.61605C5.5796 7.79379 5.30665 8.00961 5.02735 8.26351C4.79884 8.51742 4.58301 8.79037 4.37989 9.08236C4.17676 9.37435 4.02442 9.68539 3.92286 10.0155H3.88477C3.73243 10.4217 3.61182 10.8534 3.52295 11.3104C3.43409 11.7674 3.37696 12.3133 3.35157 12.9481C3.30079 13.8368 3.2754 14.6366 3.2754 15.3475C3.2754 16.0584 3.2754 17.4422 3.2754 19.4989C3.2754 21.5047 3.28174 22.8631 3.29444 23.5741C3.30713 24.285 3.32618 25.1102 3.35157 26.0497C3.37696 26.6844 3.43409 27.2303 3.52295 27.6874C3.61182 28.1444 3.73243 28.576 3.88477 28.9823C4.03712 29.3124 4.20215 29.6171 4.37989 29.8964C4.55762 30.1757 4.77344 30.455 5.02735 30.7342C5.30665 30.9882 5.58595 31.204 5.86524 31.3817C6.14454 31.5594 6.44923 31.7245 6.77931 31.8768C7.18556 32.0292 7.6172 32.1498 8.07423 32.2386C8.53126 32.3275 9.07716 32.3846 9.71193 32.41C10.6006 32.4608 11.4004 32.4862 12.1113 32.4862C12.8223 32.4862 14.2061 32.4862 16.2627 32.4862C18.2686 32.4862 19.627 32.4799 20.3379 32.4672C21.0489 32.4545 21.8741 32.4354 22.8135 32.41C23.4483 32.3846 23.9942 32.3275 24.4512 32.2386C24.9082 32.1498 25.3399 32.0292 25.7461 31.8768C26.0762 31.7245 26.3809 31.5594 26.6602 31.3817C26.9395 31.204 27.2188 30.9882 27.4981 30.7342C27.752 30.455 27.9678 30.1757 28.1455 29.8964C28.3233 29.6171 28.4883 29.3124 28.6407 28.9823C28.793 28.576 28.9136 28.1444 29.0025 27.6874C29.0914 27.2303 29.1485 26.6844 29.1739 26.0497C29.2247 25.161 29.25 24.3612 29.25 23.6503C29.25 22.9393 29.25 21.5555 29.25 19.4989C29.25 17.493 29.2437 16.1346 29.231 15.4237C29.2183 14.7127 29.1993 13.8875 29.1739 12.9481C29.1485 12.3133 29.0914 11.7674 29.0025 11.3104C28.9136 10.8534 28.793 10.4217 28.6407 10.0155C28.5137 9.68539 28.3487 9.37435 28.1455 9.08236C27.9424 8.79037 27.7266 8.51742 27.4981 8.26351C27.2442 8.035 26.9712 7.81918 26.6792 7.61605C26.3872 7.41293 26.0762 7.26058 25.7461 7.15902V7.12093C25.3399 6.96859 24.9082 6.84798 24.4512 6.75912C23.9942 6.67025 23.4483 6.61312 22.8135 6.58773C21.9248 6.53695 21.125 6.51156 20.4141 6.51156C19.7032 6.51156 18.3194 6.51156 16.2627 6.51156ZM16.2627 3.23616C18.4717 3.23616 19.9253 3.24251 20.6236 3.2552C21.3218 3.2679 22.1026 3.29964 22.9659 3.35042C23.8291 3.37581 24.5718 3.45833 25.1939 3.59798C25.816 3.73763 26.3809 3.90901 26.8887 4.11214C27.4473 4.31527 27.9551 4.56282 28.4122 4.85482C28.8692 5.14681 29.3262 5.52132 29.7832 5.97835C30.1895 6.3846 30.5513 6.82259 30.8687 7.29232C31.1861 7.76205 31.4463 8.26351 31.6495 8.79672V8.87289C31.8526 9.3807 32.024 9.94564 32.1636 10.5677C32.3033 11.1898 32.3858 11.9325 32.4112 12.7957C32.462 13.659 32.4937 14.4398 32.5064 15.138C32.5191 15.8363 32.5254 17.2899 32.5254 19.4989C32.5254 21.7079 32.5191 23.1615 32.5064 23.8597C32.4937 24.558 32.462 25.3387 32.4112 26.202C32.3858 27.0653 32.3033 27.808 32.1636 28.43C32.024 29.0521 31.8526 29.6171 31.6495 30.1249C31.4463 30.7089 31.1861 31.2357 30.8687 31.7054C30.5513 32.1752 30.1895 32.6132 29.7832 33.0194C29.377 33.4257 28.939 33.7875 28.4693 34.1049C27.9996 34.4222 27.4981 34.6825 26.9649 34.8856H26.8887C26.3809 35.0887 25.816 35.2601 25.1939 35.3998C24.5718 35.5394 23.8291 35.622 22.9659 35.6473C22.1026 35.6981 21.3218 35.7299 20.6236 35.7426C19.9253 35.7553 18.4717 35.7616 16.2627 35.7616C14.0537 35.7616 12.6001 35.7553 11.9019 35.7426C11.2036 35.7299 10.4229 35.6981 9.55958 35.6473C8.6963 35.622 7.95363 35.5394 7.33155 35.3998C6.70948 35.2601 6.14454 35.0887 5.63673 34.8856C5.05274 34.6825 4.52589 34.4222 4.05616 34.1049C3.58643 33.7875 3.14844 33.4257 2.74219 33.0194C2.33594 32.6132 1.97412 32.1752 1.65674 31.7054C1.33936 31.2357 1.0791 30.7342 0.875978 30.201V30.1249C0.672853 29.6171 0.501466 29.0521 0.361817 28.43C0.222168 27.808 0.139649 27.0653 0.114258 26.202C0.0634767 25.3387 0.0317383 24.558 0.019043 23.8597C0.00634767 23.1615 0 21.7079 0 19.4989C0 17.2899 0.00634767 15.8363 0.019043 15.138C0.0317383 14.4398 0.0634767 13.659 0.114258 12.7957C0.139649 11.9325 0.222168 11.1898 0.361817 10.5677C0.501466 9.94564 0.672853 9.3807 0.875978 8.87289C1.0791 8.2889 1.33936 7.76205 1.65674 7.29232C1.97412 6.82259 2.33594 6.3846 2.74219 5.97835C3.14844 5.5721 3.58643 5.21029 4.05616 4.8929C4.52589 4.57552 5.02735 4.31527 5.56056 4.11214H5.63673C6.14454 3.90901 6.70948 3.73763 7.33155 3.59798C7.95363 3.45833 8.6963 3.37581 9.55958 3.35042C10.4229 3.29964 11.2036 3.2679 11.9019 3.2552C12.6001 3.24251 14.0537 3.23616 16.2627 3.23616Z" fill="white"/>
</g>
<defs>
<clipPath id="clip0_391_385">
<rect width="38.44" height="38.44" fill="white" transform="matrix(1.01457 0 0 -1.01457 0 38.9995)"/>
</clipPath>
</defs>
</svg>
