<svg width="48" height="48" viewBox="0 0 48 48" fill="none" xmlns="http://www.w3.org/2000/svg">
<g clip-path="url(#clip0_391_111)">
<path d="M27.0119 16.0362H39.7261C40.8128 16.0362 41.7443 16.4243 42.5205 17.2005C43.2967 17.9767 43.6848 18.9237 43.6848 20.0414V24.1863C43.6848 24.1863 43.6848 24.1941 43.6848 24.2096C43.6848 24.2251 43.6848 24.2329 43.6848 24.2329C43.6848 24.4813 43.6615 24.7374 43.6149 25.0013C43.5684 25.2653 43.4985 25.5214 43.4053 25.7698V25.7232L37.2578 40.6729C37.1026 41.0144 36.8619 41.3016 36.5359 41.5345C36.2099 41.7674 35.8296 41.8838 35.3949 41.8838H1.95604C1.42822 41.8838 0.970255 41.6897 0.582153 41.3016C0.194051 40.9135 0 40.44 0 39.8812V20.0414C0 19.4825 0.194051 19.009 0.582153 18.6209C0.970255 18.2328 1.42822 18.0388 1.95604 18.0388H8.8953C9.23683 18.0388 9.54731 17.9612 9.82675 17.8059C10.1062 17.6507 10.339 17.4489 10.5253 17.2005L21.3301 1.83164C21.4232 1.70745 21.5397 1.60654 21.6794 1.52892C21.8191 1.4513 21.9821 1.41249 22.1684 1.41249C22.2305 1.41249 22.3004 1.42025 22.378 1.43578C22.4556 1.4513 22.541 1.49011 22.6341 1.55221L22.5875 1.50563L26.2202 3.32195C27.0274 3.75663 27.6872 4.36207 28.1995 5.13827C28.7118 5.91448 28.9679 6.79935 28.9679 7.79289C28.9679 8.01023 28.9524 8.2198 28.9214 8.42162C28.8903 8.62343 28.8438 8.833 28.7817 9.05034V9.00377L27.0119 16.0362ZM11.9225 21.2057V37.9251H34.0909L39.7261 24.1863V20.0414H27.0119C25.9252 20.0414 24.9938 19.6533 24.2176 18.8771C23.4414 18.1009 23.0533 17.1539 23.0533 16.0362C23.0533 15.8809 23.061 15.7179 23.0766 15.5472C23.0921 15.3764 23.1154 15.2134 23.1464 15.0582L24.9627 8.02575C24.9627 7.99471 24.9627 7.95589 24.9627 7.90932C24.9627 7.86275 24.9627 7.82394 24.9627 7.79289C24.9627 7.57555 24.9162 7.38927 24.823 7.23402C24.7299 7.07878 24.6057 6.97012 24.4504 6.90802L23.0998 6.20943L13.7388 19.4825C13.4904 19.8241 13.211 20.1423 12.9005 20.4373C12.59 20.7322 12.264 20.9884 11.9225 21.2057ZM7.91728 21.9974H3.95864V37.9251H7.91728V21.9974Z" fill="#191919"/>
</g>
<defs>
<clipPath id="clip0_391_111">
<rect width="47.69" height="48" fill="white" transform="matrix(1 0 0 -1 0 48)"/>
</clipPath>
</defs>
</svg>
