<svg width="39" height="39" viewBox="0 0 39 39" fill="none" xmlns="http://www.w3.org/2000/svg">
<g clip-path="url(#clip0_391_391)">
<path d="M31.7637 10.5485C31.9415 11.2848 32.0811 12.1608 32.1827 13.1764C32.2842 14.1921 32.3604 15.1696 32.4112 16.1091C32.462 17.0485 32.4874 17.8483 32.4874 18.5085C32.5127 19.1686 32.5254 19.4987 32.5254 19.4987C32.5254 19.4987 32.5127 19.8288 32.4874 20.489C32.4874 21.1491 32.462 21.9489 32.4112 22.8884C32.3604 23.8278 32.2842 24.8054 32.1827 25.821C32.0811 26.8366 31.9415 27.7126 31.7637 28.4489C31.5606 29.236 31.1797 29.9279 30.6211 30.5246C30.0625 31.1213 29.3897 31.5212 28.6026 31.7243C27.917 31.9275 26.8887 32.0798 25.5176 32.1814C24.1465 32.2829 22.7754 32.3591 21.4043 32.4099C20.0332 32.4607 18.8272 32.486 17.7862 32.486C16.7705 32.486 16.2627 32.486 16.2627 32.486C16.2627 32.486 15.7549 32.486 14.7393 32.486C13.6983 32.486 12.4922 32.4607 11.1211 32.4099C9.75001 32.3591 8.37892 32.2829 7.00782 32.1814C5.63673 32.0798 4.60841 31.9275 3.92286 31.7243C3.13575 31.5212 2.46289 31.1213 1.9043 30.5246C1.34571 29.9279 0.964845 29.236 0.76172 28.4489C0.583985 27.7126 0.444337 26.8366 0.342774 25.821C0.241211 24.8054 0.165039 23.8278 0.114258 22.8884C0.0634767 21.9489 0.038086 21.1491 0.038086 20.489C0.0126953 19.8288 0 19.4987 0 19.4987C0 19.4987 0.0126953 19.1686 0.038086 18.5085C0.038086 17.8483 0.0634767 17.0485 0.114258 16.1091C0.165039 15.1696 0.241211 14.1921 0.342774 13.1764C0.444337 12.1608 0.583985 11.2848 0.76172 10.5485C0.964845 9.7614 1.34571 9.06951 1.9043 8.47283C2.46289 7.87615 3.13575 7.47624 3.92286 7.27312C4.60841 7.06999 5.63673 6.91765 7.00782 6.81609C8.37892 6.71452 9.75001 6.63835 11.1211 6.58757C12.4922 6.53679 13.6983 6.5114 14.7393 6.5114C15.7549 6.5114 16.2627 6.5114 16.2627 6.5114C16.2627 6.5114 16.7705 6.5114 17.7862 6.5114C18.8272 6.5114 20.0332 6.53679 21.4043 6.58757C22.7754 6.63835 24.1465 6.71452 25.5176 6.81609C26.8887 6.91765 27.917 7.06999 28.6026 7.27312C29.3897 7.47624 30.0625 7.87615 30.6211 8.47283C31.1797 9.06951 31.5606 9.7614 31.7637 10.5485ZM13.0254 25.1735L22.7754 19.4987L13.0254 13.8239V25.1735Z" fill="white"/>
</g>
<defs>
<clipPath id="clip0_391_391">
<rect width="38.44" height="38.44" fill="white" transform="matrix(1.01457 0 0 -1.01457 0 38.9995)"/>
</clipPath>
</defs>
</svg>
