<svg width="48" height="48" viewBox="0 0 48 48" fill="none" xmlns="http://www.w3.org/2000/svg">
<g clip-path="url(#clip0_391_116)">
<path d="M22.8204 39.8813C22.1684 41.4648 21.2447 42.8542 20.0494 44.0496C18.854 45.2449 17.4956 46.1686 15.9743 46.8206L15.8811 46.8672C14.2977 46.1841 12.9083 45.2527 11.7129 44.0729C10.5176 42.893 9.59389 41.5269 8.94187 39.9745V39.8813H13.4128C13.7233 40.3781 14.0881 40.8361 14.5073 41.2552C14.9264 41.6744 15.3844 42.0392 15.8811 42.3497C16.3779 42.0392 16.8359 41.6744 17.255 41.2552C17.6742 40.8361 18.039 40.3781 18.3495 39.8813H22.8204ZM27.8036 29.5889L31.7623 34.0598V37.9253H0V34.0598L3.95864 29.5889V18.039C3.95864 16.3003 4.2536 14.6547 4.84352 13.1023C5.43343 11.5188 6.25621 10.0751 7.31185 8.77108C8.36748 7.46705 9.62493 6.31827 11.0842 5.32473C12.5435 4.36224 14.1424 3.60155 15.8811 3.04269C17.6198 3.60155 19.2188 4.36224 20.6781 5.32473C22.1374 6.31827 23.3948 7.46705 24.4504 8.77108C25.5061 10.0751 26.3289 11.5188 26.9188 13.1023C27.5087 14.6547 27.8036 16.3003 27.8036 18.039V29.5889ZM26.3599 33.9201L23.845 31.0792V18.039C23.845 15.7414 23.1231 13.6146 21.6794 11.6586C20.2356 9.70252 18.3029 8.24326 15.8811 7.28076C13.4594 8.24326 11.5266 9.70252 10.0829 11.6586C8.63916 13.6146 7.91728 15.7414 7.91728 18.039V31.0792L5.40238 33.9201H26.3599ZM15.8811 21.9976C14.7945 21.9976 13.863 21.6095 13.0868 20.8333C12.3106 20.0571 11.9225 19.1256 11.9225 18.039C11.9225 16.9523 12.3106 16.0208 13.0868 15.2446C13.863 14.4684 14.7945 14.0803 15.8811 14.0803C16.9678 14.0803 17.8993 14.4684 18.6755 15.2446C19.4517 16.0208 19.8398 16.9523 19.8398 18.039C19.8398 19.1256 19.4517 20.0571 18.6755 20.8333C17.8993 21.6095 16.9678 21.9976 15.8811 21.9976Z" fill="#191919"/>
</g>
<defs>
<clipPath id="clip0_391_116">
<rect width="47.69" height="48" fill="white" transform="matrix(1 0 0 -1 0 48)"/>
</clipPath>
</defs>
</svg>
