<svg width="48" height="48" viewBox="0 0 48 48" fill="none" xmlns="http://www.w3.org/2000/svg">
<g clip-path="url(#clip0_391_121)">
<path d="M0 28.9833C0 26.6547 0.551105 24.5356 1.65332 22.6262C2.75553 20.7167 4.20703 19.1876 6.00782 18.0388L6.05439 17.9922C6.33383 16.0362 6.92374 14.2043 7.82414 12.4967C8.75559 10.8201 9.91989 9.36082 11.3171 8.1189C12.7142 6.87697 14.3132 5.89895 16.114 5.18484C17.9148 4.47074 19.8243 4.11368 21.8424 4.11368C23.8605 4.11368 25.77 4.47074 27.5708 5.18484C29.3716 5.89895 30.9706 6.87697 32.3677 8.1189C33.7649 9.36082 34.9292 10.8201 35.8606 12.4967C36.761 14.1733 37.3354 15.9741 37.5838 17.8991L37.6304 17.9922C39.4622 19.172 40.9293 20.7167 42.0315 22.6262C43.1337 24.5356 43.6848 26.6547 43.6848 28.9833C43.6848 30.6599 43.3898 32.2589 42.7999 33.7802C42.1789 35.2705 41.3329 36.5901 40.2617 37.7389C39.1906 38.8876 37.9253 39.8346 36.4661 40.5798C35.0379 41.2939 33.4855 41.713 31.8089 41.8372H31.7623L11.9225 41.8838C10.2459 41.7596 8.67797 41.3249 7.2187 40.5798C5.79048 39.8657 4.53303 38.9265 3.44635 37.7621C2.35966 36.5978 1.52136 35.2705 0.931445 33.7802C0.310482 32.2589 0 30.6599 0 28.9833ZM31.4829 37.8786C33.7804 37.6923 35.7287 36.7453 37.3277 35.0377C38.9267 33.33 39.7261 31.3119 39.7261 28.9833C39.7261 27.3688 39.3458 25.9017 38.5851 24.5822C37.8244 23.2626 36.8076 22.1992 35.5346 21.392H35.4881L33.9046 20.3674L33.6717 18.5045C33.4855 17.0142 33.0353 15.6481 32.3212 14.4062C31.6381 13.1332 30.7687 12.031 29.7131 11.0995C28.6575 10.1681 27.4621 9.43845 26.127 8.91063C24.792 8.38281 23.3638 8.1189 21.8424 8.1189C20.321 8.1189 18.8928 8.38281 17.5577 8.91063C16.2227 9.43845 15.0273 10.1681 13.9717 11.0995C12.916 12.031 12.0467 13.1177 11.3636 14.3596C10.6495 15.6326 10.1993 16.9987 10.013 18.4579V18.5045L9.78018 20.3674L8.19672 21.392C6.89269 22.1682 5.86034 23.2238 5.09966 24.5589C4.33898 25.894 3.95864 27.3688 3.95864 28.9833C3.95864 31.3119 4.75037 33.33 6.33383 35.0377C7.91728 36.7453 9.8578 37.6923 12.1554 37.8786H12.2019L12.5745 37.9251H31.1103L31.4829 37.8786ZM23.845 26.0026V33.9199H19.8398V26.0026H13.8785L21.8424 16.0362L29.8062 26.0026H23.845Z" fill="#191919"/>
</g>
<defs>
<clipPath id="clip0_391_121">
<rect width="47.69" height="48" fill="white" transform="matrix(1 0 0 -1 0 48)"/>
</clipPath>
</defs>
</svg>
