<svg width="48" height="48" viewBox="0 0 48 48" fill="none" xmlns="http://www.w3.org/2000/svg">
<g clip-path="url(#clip0_391_125)">
<path d="M19.8864 4.11401C22.6186 4.11401 25.1956 4.64182 27.6174 5.69746C30.0391 6.72205 32.1504 8.13474 33.9512 9.93554C35.752 11.7363 37.1647 13.8476 38.1893 16.2694C39.2449 18.6911 39.7727 21.2681 39.7727 24.0004C39.7727 26.7326 39.2449 29.3096 38.1893 31.7314C37.1647 34.1531 35.752 36.2644 33.9512 38.0652C32.1504 39.866 30.0391 41.2787 27.6174 42.3033C25.1956 43.3589 22.6186 43.8867 19.8864 43.8867C17.1541 43.8867 14.5771 43.3589 12.1554 42.3033C9.7336 41.2787 7.62233 39.866 5.82153 38.0652C4.02074 36.2644 2.60805 34.1531 1.58346 31.7314C0.527819 29.3096 0 26.7326 0 24.0004C0 21.2681 0.527819 18.6911 1.58346 16.2694C2.60805 13.8476 4.02074 11.7363 5.82153 9.93554C7.62233 8.13474 9.7336 6.72205 12.1554 5.69746C14.5771 4.64182 17.1541 4.11401 19.8864 4.11401ZM19.8864 8.11922C17.6819 8.11922 15.6172 8.52285 13.6922 9.3301C11.7673 10.1684 10.0829 11.3094 8.63916 12.7532C7.19542 14.1969 6.05439 15.8813 5.21609 17.8063C4.40884 19.7312 4.00521 21.7959 4.00521 24.0004C4.00521 26.2048 4.40884 28.2695 5.21609 30.1945C6.05439 32.1195 7.19542 33.8038 8.63916 35.2476C10.0829 36.6913 11.7673 37.8323 13.6922 38.6706C15.6172 39.4779 17.6819 39.8815 19.8864 39.8815C22.0908 39.8815 24.1555 39.4779 26.0805 38.6706C28.0055 37.8323 29.6898 36.6913 31.1336 35.2476C32.5773 33.8038 33.7183 32.1195 34.5566 30.1945C35.3639 28.2695 35.7675 26.2048 35.7675 24.0004C35.7675 21.7959 35.3639 19.7312 34.5566 17.8063C33.7183 15.8813 32.5773 14.1969 31.1336 12.7532C29.6898 11.3094 28.0055 10.1684 26.0805 9.3301C24.1555 8.52285 22.0908 8.11922 19.8864 8.11922ZM27.5242 14.7325C27.7415 14.5772 27.9977 14.5074 28.2927 14.5229C28.5876 14.5384 28.8282 14.6549 29.0145 14.8722C29.2319 15.0585 29.3483 15.2991 29.3638 15.5941C29.3793 15.889 29.3095 16.1452 29.1542 16.3625C26.9809 19.4052 25.2965 21.7338 24.1011 23.3484C22.9058 24.9629 22.1994 25.8788 21.9821 26.0961C21.4232 26.686 20.7247 26.981 19.8864 26.981C19.0481 26.981 18.3495 26.686 17.7906 26.0961C17.2007 25.5372 16.9057 24.8387 16.9057 24.0004C16.9057 23.1621 17.2007 22.4635 17.7906 21.9046C18.1632 21.532 19.1567 20.7481 20.7712 19.5527C22.3857 18.3574 24.6367 16.7506 27.5242 14.7325ZM30.8308 21.9978C31.3587 21.9978 31.8166 22.1918 32.2047 22.5799C32.5928 22.968 32.7869 23.4415 32.7869 24.0004C32.7869 24.5592 32.5928 25.0327 32.2047 25.4208C31.8166 25.8089 31.3587 26.003 30.8308 26.003C30.272 26.003 29.7985 25.8089 29.4104 25.4208C29.0223 25.0327 28.8282 24.5592 28.8282 24.0004C28.8282 23.4415 29.0223 22.968 29.4104 22.5799C29.7985 22.1918 30.272 21.9978 30.8308 21.9978ZM8.94187 21.9978C9.50074 21.9978 9.97423 22.1918 10.3623 22.5799C10.7504 22.968 10.9445 23.4415 10.9445 24.0004C10.9445 24.5592 10.7504 25.0327 10.3623 25.4208C9.97423 25.8089 9.50074 26.003 8.94187 26.003C8.41406 26.003 7.9561 25.8089 7.56799 25.4208C7.17989 25.0327 6.98584 24.5592 6.98584 24.0004C6.98584 23.4415 7.17989 22.968 7.56799 22.5799C7.9561 22.1918 8.41406 21.9978 8.94187 21.9978ZM13.5525 14.8722C13.9562 15.2448 14.158 15.7105 14.158 16.2694C14.158 16.8282 13.9562 17.294 13.5525 17.6665C13.18 18.0702 12.7142 18.272 12.1554 18.272C11.5965 18.272 11.1308 18.0702 10.7582 17.6665C10.3546 17.294 10.1528 16.8282 10.1528 16.2694C10.1528 15.7105 10.3546 15.2448 10.7582 14.8722C11.1308 14.4686 11.5965 14.2668 12.1554 14.2668C12.7142 14.2668 13.18 14.4686 13.5525 14.8722ZM19.8864 11.0998C20.4452 11.0998 20.9187 11.2939 21.3068 11.682C21.6949 12.0701 21.889 12.5281 21.889 13.0559C21.889 13.6147 21.6949 14.0882 21.3068 14.4763C20.9187 14.8644 20.4452 15.0585 19.8864 15.0585C19.3275 15.0585 18.854 14.8644 18.4659 14.4763C18.0778 14.0882 17.8837 13.6147 17.8837 13.0559C17.8837 12.5281 18.0778 12.0701 18.4659 11.682C18.854 11.2939 19.3275 11.0998 19.8864 11.0998Z" fill="#191919"/>
</g>
<defs>
<clipPath id="clip0_391_125">
<rect width="47.69" height="48" fill="white" transform="matrix(1 0 0 -1 0 48)"/>
</clipPath>
</defs>
</svg>
