<svg width="26" height="26" viewBox="0 0 26 26" fill="none" xmlns="http://www.w3.org/2000/svg">
<g clip-path="url(#clip0_391_16)">
<path d="M4.82422 20.5918L0 24.375V4.3418C0 4.03711 0.105794 3.77897 0.317383 3.56738C0.528971 3.35579 0.787109 3.25 1.0918 3.25H20.5918C20.8965 3.25 21.1546 3.35579 21.3662 3.56738C21.5778 3.77897 21.6836 4.03711 21.6836 4.3418V19.5C21.6836 19.8047 21.5778 20.0628 21.3662 20.2744C21.1546 20.486 20.8965 20.5918 20.5918 20.5918H4.82422ZM10.0801 13.127L7.38867 10.4609L5.86523 11.9844L10.0801 16.1992L16.1992 10.0801L14.6758 8.53125L10.0801 13.127Z" fill="white"/>
</g>
<defs>
<clipPath id="clip0_391_16">
<rect width="26" height="26" fill="white" transform="matrix(1 0 0 -1 0 26)"/>
</clipPath>
</defs>
</svg>
