<svg width="39" height="39" viewBox="0 0 39 39" fill="none" xmlns="http://www.w3.org/2000/svg">
<g clip-path="url(#clip0_391_382)">
<path d="M11.3496 21.9364H15.4248L17.0625 15.4237H11.3496V12.1864C11.3496 11.3485 11.4893 10.5995 11.7686 9.9393C12.0479 9.27914 13 8.94906 14.625 8.94906H17.0625V3.46468C16.7832 3.43929 16.1992 3.39485 15.3106 3.33138C14.4219 3.2679 13.4571 3.23616 12.416 3.23616C10.207 3.23616 8.39796 3.88997 6.98878 5.19759C5.5796 6.50521 4.87501 8.40316 4.87501 10.8914V15.4237H0V21.9364H4.87501V35.7616H11.3496V21.9364Z" fill="white"/>
</g>
<defs>
<clipPath id="clip0_391_382">
<rect width="38.44" height="38.44" fill="white" transform="matrix(1.01457 0 0 -1.01457 0 38.9995)"/>
</clipPath>
</defs>
</svg>
