<svg width="89" height="89" viewBox="0 0 89 89" fill="none" xmlns="http://www.w3.org/2000/svg">
<path d="M77.2805 43.1408C77.5069 42.3482 77.8749 41.6405 78.3845 41.0177C78.894 40.3949 79.5168 39.8854 80.2528 39.4891C80.9888 39.0928 81.7531 38.8946 82.5457 38.8946C84.0177 38.8946 85.2916 39.4325 86.3673 40.5082C87.443 41.5839 87.9808 42.8577 87.9808 44.3297C87.9808 44.443 87.9808 44.4996 87.9808 44.4996C87.9808 46.4245 87.2165 47.8965 85.6879 48.9156C84.1593 49.9347 82.5174 50.1895 80.7623 49.6799C79.0072 49.1704 77.8466 47.8965 77.2805 45.8583H70.3167C70.2035 48.3494 69.4958 51.1519 68.1936 54.2658C66.8915 57.3797 65.3912 59.8991 63.6927 61.824L68.6183 66.7496C69.5241 66.2966 70.43 66.0702 71.3358 66.0702C72.9211 66.0702 74.2232 66.608 75.2423 67.6837C76.2614 68.7594 76.7709 70.0333 76.7709 71.5053C76.7709 72.9773 76.2614 74.2512 75.2423 75.3269C74.2232 76.4025 72.9211 76.9404 71.3358 76.9404C69.7506 76.9404 68.4484 76.3176 67.4293 75.0721C66.4102 74.053 65.9007 72.8641 65.9007 71.5053C65.9007 70.4862 66.1838 69.5803 66.7499 68.7877L61.8244 63.6923C59.8994 65.3908 57.38 66.8911 54.2662 68.1933C51.1523 69.4954 48.3498 70.2031 45.8587 70.3164V77.2801C47.7837 77.8463 49.0575 79.0069 49.6803 80.762C50.3031 82.5171 50.1049 84.1589 49.0858 85.6875C48.0667 87.2162 46.5381 87.9805 44.4999 87.9805C43.0279 87.8672 41.7824 87.3011 40.7633 86.282C39.7442 85.2629 39.2347 84.0174 39.2347 82.5454C39.2347 81.413 39.631 80.3373 40.4236 79.3183C41.2162 78.2992 42.1221 77.6198 43.1412 77.2801V70.3164C40.6501 70.2031 37.8476 69.4954 34.7337 68.1933C31.6199 66.8911 29.1005 65.3908 27.1755 63.6923L22.2499 68.6179C22.7029 69.5237 22.9293 70.4296 22.9293 71.3354C22.9293 72.8074 22.4764 74.053 21.5706 75.0721C19.7588 76.7706 17.8622 77.2801 15.8807 76.6007C13.8991 75.9213 12.7102 74.6475 12.3139 72.7791C11.9176 70.9108 12.3988 69.1274 13.7576 67.429C13.8708 67.3157 13.984 67.2591 14.0973 67.2591C15.1164 66.3533 16.2487 65.9003 17.4942 65.9003C18.5133 65.9003 19.4192 66.1834 20.2118 66.7496L25.3072 61.824C24.4013 60.9181 23.5804 59.7858 22.8444 58.427C22.1084 57.0683 21.429 55.6812 20.8062 54.2658C20.1835 52.8504 19.7022 51.4067 19.3625 49.9347C19.0228 48.4627 18.7964 47.1039 18.6832 45.8583H11.7194C11.1533 47.7833 9.99263 49.0571 8.23754 49.6799C6.48245 50.3027 4.8406 50.1045 3.31197 49.0854C1.78335 48.0664 1.01903 46.5377 1.01903 44.4996C1.01903 42.4614 1.78335 40.9328 3.31197 39.9137C4.8406 38.8946 6.48245 38.6965 8.23754 39.3192C9.99263 39.942 11.1533 41.2159 11.7194 43.1408H18.6832C18.7964 40.6497 19.5041 37.8472 20.8062 34.7333C22.1084 31.6195 23.6087 29.1001 25.3072 27.1751L20.3816 22.2496C19.4758 22.7025 18.5699 22.929 17.6641 22.929C16.0788 22.929 14.7767 22.3911 13.7576 21.3154C12.7385 20.2397 12.229 18.9659 12.229 17.4938C12.229 16.0218 12.7385 14.748 13.7576 13.6723C14.7767 12.5966 16.0505 12.0587 17.5791 12.0587C19.1078 12.0587 20.4099 12.5966 21.4856 13.6723C22.5613 14.748 23.0992 16.0218 23.0992 17.4938C23.0992 18.5129 22.8161 19.4188 22.2499 20.2114L27.1755 25.3068C29.1005 23.6084 31.6199 22.108 34.7337 20.8059C37.8476 19.5037 40.6501 18.796 43.1412 18.6828V11.719C42.0088 11.3793 41.0464 10.7 40.2538 9.68088C39.4611 8.66179 39.0648 7.58609 39.0648 6.45378C39.0648 4.98176 39.6027 3.70791 40.6784 2.63221C41.7541 1.55651 43.0279 1.01866 44.4999 1.01866C46.4249 1.01866 47.8969 1.78298 48.916 3.3116C49.9351 4.84023 50.1898 6.48209 49.6803 8.23717C49.1707 9.99226 47.8969 11.1529 45.8587 11.719V18.6828C48.3498 18.796 51.1523 19.5037 54.2662 20.8059C57.38 22.108 59.8994 23.6084 61.8244 25.3068L66.7499 20.3813C66.297 19.4754 66.0705 18.5696 66.0705 17.6637C66.0705 16.0785 66.6084 14.7763 67.6841 13.7572C68.7598 12.7381 70.0336 12.2286 71.5057 12.2286C72.9777 12.2286 74.2515 12.7381 75.3272 13.7572C76.4029 14.7763 76.9408 16.0785 76.9408 17.6637C76.9408 19.2489 76.318 20.5511 75.0725 21.5702C74.0534 22.5893 72.8644 23.0988 71.5057 23.0988C70.4866 23.0988 69.5807 22.8157 68.7881 22.2496L63.6927 27.1751C65.3912 29.1001 66.8915 31.6195 68.1936 34.7333C69.4958 37.8472 70.2035 40.6497 70.3167 43.1408H77.2805ZM32.6106 64.3717C36.3473 66.5231 40.3387 67.5988 44.5849 67.5988C48.831 67.5988 52.7658 66.5231 56.3892 64.3717C53.332 63.0129 50.5012 61.3711 47.8969 59.4461C47.2175 59.8991 46.4815 60.1255 45.6889 60.1255C44.8962 60.1255 44.1602 59.8991 43.4809 59.4461C40.1971 61.7108 36.5737 63.3526 32.6106 64.3717ZM21.4007 45.3488C21.5139 48.1796 22.3915 51.2368 24.0333 54.5206C25.6752 57.8043 27.5718 60.352 29.7232 62.1637C34.026 61.3711 38.0457 59.7858 41.7824 57.408C41.5559 56.8418 41.4427 56.3323 41.4427 55.8793C41.4427 55.0867 41.6692 54.3507 42.1221 53.6713C40.6501 51.8596 39.1781 49.4818 37.706 46.5377C36.234 43.5937 35.215 40.9328 34.6488 38.5549C33.7429 38.4417 32.9503 37.9888 32.2709 37.1961C28.0814 39.2343 24.458 41.9519 21.4007 45.3488ZM34.1393 23.7782H34.3091C31.2519 25.2502 28.4777 27.713 25.9866 31.1666C23.4955 34.6201 22.0235 37.9888 21.5706 41.2725C24.4013 38.5549 27.6284 36.4035 31.2519 34.8183C31.2519 34.705 31.2519 34.6484 31.2519 34.6484C31.2519 32.8367 32.0445 31.5912 33.6297 30.9118C33.6297 30.6853 33.6297 30.5155 33.6297 30.4022C33.6297 28.1376 33.7996 25.9296 34.1393 23.7782ZM57.0686 25.137C55.4834 24.1179 53.4735 23.2404 51.0391 22.5043C48.6046 21.7683 46.4249 21.4003 44.4999 21.4003C42.0088 21.4003 39.5744 21.7966 37.1965 22.5893C36.6303 25.0804 36.3473 27.6281 36.3473 30.2324C36.3473 30.3456 36.3473 30.4589 36.3473 30.5721C37.3664 30.9118 38.159 31.4779 38.7251 32.2706C41.4427 31.7044 44.1602 31.4213 46.8778 31.4213C49.5954 31.4213 52.3129 31.7044 55.0305 32.2706C55.4834 31.4779 56.2194 30.9118 57.2385 30.5721C57.2385 29.8927 57.2385 29.2133 57.2385 28.5339C57.2385 27.4016 57.1819 26.2693 57.0686 25.137ZM33.9694 34.6484C33.9694 35.5543 34.4506 36.0072 35.4131 36.0072C36.3756 36.0072 36.8568 35.5543 36.8568 34.6484C36.8568 33.7426 36.3756 33.2896 35.4131 33.2896C34.4506 33.2896 33.9694 33.7426 33.9694 34.6484ZM46.708 55.0301C46.4815 54.6904 46.1418 54.5206 45.6889 54.5206C44.783 54.5206 44.3301 54.9735 44.3301 55.8793C44.3301 56.7852 44.783 57.2381 45.6889 57.2381C46.1418 57.2381 46.4815 57.0683 46.708 56.7286C46.9344 56.5021 47.0476 56.219 47.0476 55.8793C47.0476 55.5396 46.9344 55.2566 46.708 55.0301ZM47.727 52.3125V52.4824C49.4255 50.7839 51.0674 48.5193 52.6526 45.6885C54.2379 42.8577 55.3702 40.31 56.0496 38.0454C54.9172 37.2528 54.2945 36.1771 54.1812 34.8183C51.8034 34.2521 49.3689 33.969 46.8778 33.969C44.3867 33.969 41.9522 34.2521 39.5744 34.8183C39.4611 36.4035 38.7251 37.5358 37.3664 38.2152C37.8193 40.3666 38.7251 42.7728 40.0839 45.4337C41.4427 48.0947 42.8581 50.2744 44.3301 51.9728C44.783 51.8596 45.2359 51.803 45.6889 51.803C46.3683 51.803 47.0476 51.9728 47.727 52.3125ZM56.8988 34.6484C56.8988 34.6484 56.8988 34.8749 56.8988 35.3278C56.8988 35.7807 57.3517 36.0072 58.2576 36.0072C59.1634 36.0072 59.6163 35.5543 59.6163 34.6484C59.6163 33.7426 59.1634 33.2896 58.2576 33.2896C57.3517 33.2896 56.8988 33.7426 56.8988 34.6484ZM59.956 30.9118C61.5413 31.5912 62.3339 32.8367 62.3339 34.6484C62.3339 34.6484 62.3339 34.705 62.3339 34.8183C63.6927 35.3844 64.9948 36.0638 66.2404 36.8564C64.8816 33.233 62.7868 30.1192 59.956 27.5148C59.956 28.081 59.956 28.6472 59.956 29.2133C59.956 29.7795 59.956 30.3456 59.956 30.9118ZM73.374 15.7954V15.6255C72.8078 15.1726 72.1567 14.9461 71.4207 14.9461C70.6847 14.9461 70.0336 15.2009 69.4675 15.7105C68.9013 16.22 68.6183 16.8711 68.6183 17.6637C68.6183 18.4563 68.9013 19.1074 69.4675 19.6169C70.0336 20.1265 70.6847 20.3813 71.4207 20.3813C72.1567 20.3813 72.7795 20.1265 73.2891 19.6169C73.7986 19.1074 74.0534 18.4563 74.0534 17.6637C74.0534 16.8711 73.8269 16.2483 73.374 15.7954ZM42.5467 4.50053C42.5467 4.50053 42.4193 4.62792 42.1645 4.88269C41.9098 5.13746 41.7824 5.66116 41.7824 6.45378C41.7824 7.24639 42.0372 7.89748 42.5467 8.40702C43.0562 8.91656 43.7073 9.17133 44.4999 9.17133C45.2926 9.17133 45.9436 8.91656 46.4532 8.40702C46.9627 7.89748 47.2175 7.24639 47.2175 6.45378C47.2175 5.66116 46.9627 5.01008 46.4532 4.50053C45.9436 3.99099 45.2926 3.73622 44.4999 3.73622C43.7073 3.73622 43.0562 3.99099 42.5467 4.50053ZM14.9465 17.5788C14.9465 17.5788 14.9465 17.7628 14.9465 18.1308C14.9465 18.4988 15.2013 18.9375 15.7108 19.4471C16.2204 19.9566 16.8431 20.2114 17.5791 20.2114C18.3151 20.2114 18.9662 19.9566 19.5324 19.4471C20.0985 18.9375 20.3816 18.3148 20.3816 17.5788C20.3816 16.8428 20.0985 16.22 19.5324 15.7105C18.9662 15.2009 18.3151 14.9461 17.5791 14.9461C16.8431 14.9461 16.2204 15.2009 15.7108 15.7105C15.2013 16.22 14.9465 16.8428 14.9465 17.5788ZM4.5009 46.4528C4.5009 46.4528 4.62829 46.5802 4.88306 46.835C5.13783 47.0897 5.66153 47.2171 6.45415 47.2171C7.24677 47.2171 7.89785 46.9624 8.40739 46.4528C8.91693 45.9433 9.1717 45.2922 9.1717 44.4996C9.1717 43.7069 8.91693 43.0559 8.40739 42.5463C7.89785 42.0368 7.24677 41.782 6.45415 41.782C5.66153 41.782 5.01044 42.0368 4.5009 42.5463C3.99136 43.0559 3.73659 43.7069 3.73659 44.4996C3.73659 45.2922 3.99136 45.9433 4.5009 46.4528ZM14.9465 71.4204C14.9465 71.4204 14.9465 71.6044 14.9465 71.9724C14.9465 72.3404 15.2013 72.7791 15.7108 73.2887C16.2204 73.7982 16.8431 74.053 17.5791 74.053C18.3151 74.053 18.9662 73.7982 19.5324 73.2887C20.0985 72.7791 20.3816 72.1564 20.3816 71.4204C20.3816 70.6844 20.0985 70.0333 19.5324 69.4671C18.9662 68.901 18.3151 68.6179 17.5791 68.6179C16.8431 68.6179 16.2204 68.901 15.7108 69.4671C15.2013 70.0333 14.9465 70.6844 14.9465 71.4204ZM46.4532 84.4986C46.4532 84.4986 46.5806 84.3712 46.8353 84.1164C47.0901 83.8617 47.2175 83.338 47.2175 82.5454C47.2175 81.7527 46.9627 81.1017 46.4532 80.5921C45.9436 80.0826 45.2926 79.8278 44.4999 79.8278C43.7073 79.8278 43.0562 80.0826 42.5467 80.5921C42.0372 81.1017 41.7824 81.7527 41.7824 82.5454C41.7824 83.338 42.0372 83.9891 42.5467 84.4986C43.0562 85.0081 43.7073 85.2629 44.4999 85.2629C45.2926 85.2629 45.9436 85.0081 46.4532 84.4986ZM74.0534 71.4204C74.0534 71.4204 74.0534 71.2364 74.0534 70.8684C74.0534 70.5004 73.7986 70.0333 73.2891 69.4671C72.7795 68.901 72.1567 68.6179 71.4207 68.6179C70.6847 68.6179 70.0336 68.901 69.4675 69.4671C68.9013 70.0333 68.6183 70.6561 68.6183 71.3354C68.6183 71.9016 68.7598 72.3828 69.0429 72.7791C69.3259 73.1755 69.6656 73.4868 70.062 73.7133C70.4583 73.9398 70.8829 74.053 71.3358 74.053C72.1284 74.053 72.7795 73.7982 73.2891 73.2887C73.7986 72.7791 74.0534 72.1564 74.0534 71.4204ZM59.1068 62.5034C61.3714 60.5784 63.353 57.8609 65.0515 54.3507C66.7499 50.8405 67.5992 47.6134 67.5992 44.6694C67.5992 43.4239 67.4859 42.1783 67.2595 40.9328C65.4478 39.574 63.4662 38.3851 61.3148 37.366C60.6354 38.1586 59.7296 38.6115 58.5973 38.7248C57.9179 41.2159 56.7006 44.0183 54.9455 47.1322C53.1905 50.2461 51.4071 52.7089 49.5954 54.5206C49.7086 54.9735 49.7652 55.4264 49.7652 55.8793C49.7652 56.3323 49.7086 56.7852 49.5954 57.2381C52.4261 59.5027 55.5966 61.2578 59.1068 62.5034ZM80.5925 46.4528C80.5925 46.4528 80.7199 46.5802 80.9746 46.835C81.2294 47.0897 81.7531 47.2171 82.5457 47.2171C83.3383 47.2171 83.9894 46.9624 84.499 46.4528C85.0085 45.9433 85.2633 45.2922 85.2633 44.4996C85.2633 43.7069 85.0085 43.0559 84.499 42.5463C83.9894 42.0368 83.3383 41.782 82.5457 41.782C81.7531 41.782 81.102 42.0368 80.5925 42.5463C80.0829 43.0559 79.8282 43.7069 79.8282 44.4996C79.8282 45.2922 80.0829 45.9433 80.5925 46.4528ZM9.00186 35.4977C8.88862 36.1771 8.4357 36.5167 7.64308 36.5167C6.73722 36.5167 6.2843 36.0638 6.2843 35.158C6.2843 35.0447 6.2843 34.9315 6.2843 34.8183C6.51076 34.1389 6.96369 33.7992 7.64308 33.7992C8.54893 33.7992 9.00186 34.2521 9.00186 35.158C9.00186 35.2712 9.00186 35.3844 9.00186 35.4977ZM12.9083 25.8164C12.6819 26.1561 12.3422 26.3259 11.8893 26.3259C10.9834 26.3259 10.5305 25.873 10.5305 24.9671C10.5305 24.7407 10.5305 24.5708 10.5305 24.4576C10.8702 24.0047 11.2665 23.7782 11.7194 23.7782C12.6253 23.7782 13.0782 24.2311 13.0782 25.137C13.0782 25.3634 13.0216 25.5899 12.9083 25.8164ZM10.5305 30.4022C10.304 30.9684 9.90771 31.2515 9.34155 31.2515C8.4357 31.2515 7.98277 30.7986 7.98277 29.8927C7.98277 29.7795 8.03939 29.6096 8.15262 29.3832C8.37908 28.817 8.77539 28.5339 9.34155 28.5339C10.2474 28.5339 10.7003 28.9868 10.7003 29.8927C10.7003 30.1192 10.6437 30.289 10.5305 30.4022ZM65.0515 12.3984C64.825 12.8514 64.4853 13.0778 64.0324 13.0778C63.1265 13.0778 62.6736 12.6249 62.6736 11.719C62.6736 11.4926 62.6736 11.2661 62.6736 11.0397C63.0133 10.7 63.4096 10.5301 63.8625 10.5301C64.7684 10.5301 65.2213 10.983 65.2213 11.8889C65.2213 12.1154 65.1647 12.2852 65.0515 12.3984ZM60.2957 9.85072C60.0693 10.4169 59.673 10.7 59.1068 10.7C58.201 10.7 57.748 10.247 57.748 9.34118C57.748 9.11471 57.748 8.94487 57.748 8.83164C57.9745 8.26548 58.4274 7.9824 59.1068 7.9824C60.0127 7.9824 60.4656 8.43533 60.4656 9.34118C60.4656 9.56765 60.409 9.73749 60.2957 9.85072ZM55.2003 7.9824C54.9739 8.43533 54.5775 8.66179 54.0114 8.66179C53.1055 8.66179 52.6526 8.20886 52.6526 7.30301C52.8791 6.85008 53.2754 6.62362 53.8415 6.62362C54.7474 6.62362 55.2003 7.07655 55.2003 7.9824ZM80.1679 57.7477C80.734 57.9741 81.0171 58.427 81.0171 59.1064C81.0171 60.0123 80.5642 60.4652 79.6583 60.4652C79.4319 60.4652 79.262 60.4086 79.1488 60.2954C78.5826 60.0689 78.2996 59.6726 78.2996 59.1064C78.2996 58.2006 78.7525 57.7477 79.6583 57.7477C79.8848 57.7477 80.0546 57.7477 80.1679 57.7477ZM77.9598 62.6732C78.2996 63.0129 78.4694 63.4092 78.4694 63.8622C78.4694 64.768 78.0165 65.2209 77.1106 65.2209C76.8842 65.2209 76.7143 65.1643 76.6011 65.0511C76.1481 64.8246 75.9217 64.4849 75.9217 64.032C75.9217 63.1262 76.3746 62.6732 77.2805 62.6732C77.5069 62.6732 77.7334 62.6732 77.9598 62.6732ZM81.6965 52.6522C82.3759 52.8787 82.7156 53.3316 82.7156 54.011C82.7156 54.9169 82.2627 55.3698 81.3568 55.3698C81.2436 55.3698 81.1303 55.3698 81.0171 55.3698C80.3377 55.1433 79.998 54.6904 79.998 54.011C79.998 53.1052 80.4509 52.6522 81.3568 52.6522C81.47 52.6522 81.5833 52.6522 81.6965 52.6522ZM30.4026 78.469C30.9688 78.6955 31.2519 79.0918 31.2519 79.658C31.2519 80.5638 30.7989 81.0167 29.8931 81.0167C28.9872 81.0167 28.5343 80.5638 28.5343 79.658C28.5343 78.7521 28.9872 78.2992 29.8931 78.2992C30.1195 78.2992 30.2894 78.3558 30.4026 78.469ZM25.8167 76.0912C26.1564 76.3176 26.3263 76.6573 26.3263 77.1102C26.3263 78.0161 25.8734 78.469 24.9675 78.469C24.741 78.469 24.5712 78.469 24.458 78.469C24.005 78.1293 23.7786 77.733 23.7786 77.2801C23.7786 76.3742 24.2315 75.9213 25.1373 75.9213C25.3638 75.9213 25.5903 75.9779 25.8167 76.0912ZM35.498 79.9977C36.0642 80.2241 36.3473 80.677 36.3473 81.3564C36.3473 81.4697 36.3473 81.5829 36.3473 81.6961C36.1208 82.3755 35.6679 82.7152 34.9885 82.7152C34.0826 82.7152 33.6297 82.2623 33.6297 81.3564C33.6297 80.4506 34.0826 79.9977 34.9885 79.9977C35.1017 79.9977 35.2716 79.9977 35.498 79.9977ZM12.9083 63.1828C13.0216 63.4092 13.0782 63.6357 13.0782 63.8622C13.0782 64.768 12.6253 65.2209 11.7194 65.2209C11.2665 65.2209 10.8702 64.9945 10.5305 64.5415C10.5305 64.4283 10.5305 64.2585 10.5305 64.032C10.5305 63.1262 10.9834 62.6732 11.8893 62.6732C12.3422 62.6732 12.6819 62.8431 12.9083 63.1828ZM10.5305 58.5969C10.6437 58.7101 10.7003 58.88 10.7003 59.1064C10.7003 60.0123 10.2474 60.4652 9.34155 60.4652C8.77539 60.4652 8.37908 60.1821 8.15262 59.616C8.03939 59.3895 7.98277 59.2197 7.98277 59.1064C7.98277 58.2006 8.4357 57.7477 9.34155 57.7477C9.90771 57.7477 10.304 58.0307 10.5305 58.5969ZM9.00186 53.5015C9.00186 53.6147 9.00186 53.7279 9.00186 53.8412C9.00186 54.747 8.54893 55.1999 7.64308 55.1999C6.96369 55.1999 6.51076 54.8603 6.2843 54.1809C6.2843 54.1809 6.2843 54.1242 6.2843 54.011C6.2843 53.1052 6.73722 52.6522 7.64308 52.6522C8.32247 52.6522 8.77539 52.9353 9.00186 53.5015ZM63.1831 76.0912C63.4096 75.9779 63.6361 75.9213 63.8625 75.9213C64.4287 75.9213 64.825 76.1478 65.0515 76.6007C65.1647 76.7139 65.2213 76.9404 65.2213 77.2801C65.2213 78.1859 64.7684 78.6389 63.8625 78.6389C62.9567 78.6389 62.5038 78.1859 62.5038 77.2801C62.5038 77.0536 62.5887 76.8272 62.7585 76.6007C62.9284 76.3742 63.0699 76.2044 63.1831 76.0912ZM58.5973 78.469C58.7105 78.3558 58.8803 78.2992 59.1068 78.2992C59.673 78.2992 60.0693 78.5823 60.2957 79.1484C60.409 79.3749 60.4656 79.5447 60.4656 79.658C60.4656 80.5638 60.0127 81.0167 59.1068 81.0167C58.201 81.0167 57.748 80.5638 57.748 79.658C57.748 79.0918 58.0311 78.6955 58.5973 78.469ZM53.5018 79.9977C53.6151 79.9977 53.7283 79.9977 53.8415 79.9977C54.6342 79.9977 55.0871 80.3373 55.2003 81.0167C55.2003 81.13 55.2003 81.2432 55.2003 81.3564C55.2003 82.2623 54.7474 82.7152 53.8415 82.7152C52.9357 82.7152 52.4828 82.2623 52.4828 81.3564C52.4828 80.677 52.8225 80.2241 53.5018 79.9977ZM78.4694 30.4022C78.4694 30.289 78.4694 30.1758 78.4694 30.0625C78.4694 29.1567 78.9223 28.7038 79.8282 28.7038C80.2811 28.7038 80.6774 28.9302 81.0171 29.3832C81.0171 29.4964 81.0171 29.6662 81.0171 29.8927C81.0171 30.7986 80.5642 31.2515 79.6583 31.2515C79.0922 31.2515 78.6959 30.9684 78.4694 30.4022ZM77.9598 26.3259C77.7334 26.3259 77.5069 26.3259 77.2805 26.3259C76.3746 26.3259 75.9217 25.873 75.9217 24.9671C75.9217 24.5142 76.1481 24.1745 76.6011 23.948C76.7143 23.8348 76.8842 23.7782 77.1106 23.7782C78.0165 23.7782 78.4694 24.2311 78.4694 25.137C78.4694 25.5899 78.2996 25.9862 77.9598 26.3259ZM79.998 35.4977C79.7716 34.3653 80.2245 33.7992 81.3568 33.7992C82.2627 33.686 82.7156 34.0257 82.7156 34.8183C82.7156 34.8183 82.7156 34.8749 82.7156 34.9881C82.7156 35.894 82.2627 36.3469 81.3568 36.3469C80.6774 36.3469 80.2245 36.0638 79.998 35.4977ZM31.2519 9.34118C31.2519 10.247 30.7989 10.7 29.8931 10.7C28.9872 10.7 28.5343 10.247 28.5343 9.34118C28.5343 8.77502 28.8174 8.37871 29.3835 8.15225C29.61 8.03902 29.7798 7.9824 29.8931 7.9824C30.5725 7.9824 31.0254 8.26548 31.2519 8.83164C31.2519 8.94487 31.2519 9.11471 31.2519 9.34118ZM26.3263 11.0397C26.3263 11.2661 26.3263 11.4926 26.3263 11.719C26.3263 12.6249 25.8734 13.0778 24.9675 13.0778C24.5146 13.0778 24.1749 12.8514 23.9484 12.3984C23.8352 12.2852 23.7786 12.1154 23.7786 11.8889C23.7786 10.983 24.2315 10.5301 25.1373 10.5301C25.5903 10.5301 25.9866 10.7 26.3263 11.0397ZM35.498 9.00148C35.3848 9.00148 35.3282 9.00148 35.3282 9.00148C34.4223 9.00148 33.9694 8.54856 33.9694 7.64271C33.9694 6.96332 34.2525 6.51039 34.8186 6.28393C34.8186 6.28393 34.8753 6.28393 34.9885 6.28393C35.8943 6.28393 36.3473 6.73685 36.3473 7.64271C36.3473 8.3221 36.0642 8.77502 35.498 9.00148Z" fill="#191919"/>
</svg>
