<svg width="21" height="21" viewBox="0 0 21 21" fill="none" xmlns="http://www.w3.org/2000/svg">
<g clip-path="url(#clip0_391_337)">
<path d="M8.75651 9.61859V6.99369L12.2632 10.5004L8.75651 14.0071V11.3822H5.2498V9.61859H8.75651ZM8.75651 1.74389C9.95959 1.74389 11.0943 1.9763 12.1607 2.44113C13.227 2.89228 14.1567 3.51433 14.9496 4.30727C15.7426 5.10021 16.3646 6.02986 16.8158 7.09623C17.2806 8.16259 17.513 9.29732 17.513 10.5004C17.513 11.7035 17.2806 12.8382 16.8158 13.9046C16.3646 14.9709 15.7426 15.9006 14.9496 16.6935C14.1567 17.4865 13.227 18.1085 12.1607 18.5597C11.0943 19.0245 9.95959 19.2569 8.75651 19.2569C7.55343 19.2569 6.4187 19.0245 5.35234 18.5597C4.28597 18.1085 3.35632 17.4865 2.56338 16.6935C1.77044 15.9006 1.14839 14.9709 0.697239 13.9046C0.232413 12.8382 0 11.7035 0 10.5004C0 9.29732 0.232413 8.16259 0.697239 7.09623C1.14839 6.02986 1.77044 5.10021 2.56338 4.30727C3.35632 3.51433 4.28597 2.89228 5.35234 2.44113C6.4187 1.9763 7.55343 1.74389 8.75651 1.74389ZM8.75651 17.4933C9.72717 17.4933 10.6363 17.3156 11.4839 16.9601C12.3316 16.591 13.0732 16.0886 13.709 15.4528C14.3447 14.8171 14.8471 14.0755 15.2162 13.2278C15.5717 12.3802 15.7494 11.4711 15.7494 10.5004C15.7494 9.52973 15.5717 8.62058 15.2162 7.77296C14.8471 6.92533 14.3447 6.18366 13.709 5.54794C13.0732 4.91223 12.3316 4.4098 11.4839 4.04068C10.6363 3.68522 9.72717 3.50749 8.75651 3.50749C7.78584 3.50749 6.87669 3.68522 6.02907 4.04068C5.18145 4.4098 4.43977 4.91223 3.80406 5.54794C3.16834 6.18366 2.66592 6.92533 2.29679 7.77296C1.94133 8.62058 1.76361 9.52973 1.76361 10.5004C1.76361 11.4711 1.94133 12.3802 2.29679 13.2278C2.66592 14.0755 3.16834 14.8171 3.80406 15.4528C4.43977 16.0886 5.18145 16.591 6.02907 16.9601C6.87669 17.3156 7.78584 17.4933 8.75651 17.4933Z" fill="white"/>
</g>
<defs>
<clipPath id="clip0_391_337">
<rect width="20.8" height="20.8" fill="white" transform="matrix(1.00958 0 0 -1.00958 0 21)"/>
</clipPath>
</defs>
</svg>
