<svg width="89" height="89" viewBox="0 0 89 89" fill="none" xmlns="http://www.w3.org/2000/svg">
<path d="M49.3406 33.0349C49.3406 33.0349 49.015 33.3604 48.364 34.0115C47.7129 34.6626 46.4249 34.9881 44.4999 34.9881C42.575 34.9881 40.9615 34.337 39.6593 33.0349C38.3571 31.7327 37.706 30.1192 37.706 28.1942C37.706 26.2693 38.3571 24.6557 39.6593 23.3536C40.9615 22.0514 42.575 21.4003 44.4999 21.4003C46.4249 21.4003 48.0384 22.0514 49.3406 23.3536C50.6427 24.6557 51.2938 26.2693 51.2938 28.1942C51.2938 30.1192 50.6427 31.7327 49.3406 33.0349ZM47.3873 25.3068C47.3873 25.3068 47.1892 25.1087 46.7929 24.7124C46.3966 24.316 45.6323 24.1179 44.4999 24.1179C43.3676 24.1179 42.4052 24.5142 41.6125 25.3068C40.8199 26.0994 40.4236 27.0619 40.4236 28.1942C40.4236 29.3265 40.8199 30.289 41.6125 31.0816C42.4052 31.8743 43.3676 32.2706 44.4999 32.2706C45.6323 32.2706 46.5947 31.8743 47.3873 31.0816C48.18 30.289 48.5763 29.3265 48.5763 28.1942C48.5763 27.0619 48.18 26.0994 47.3873 25.3068ZM83.9045 74.3927C85.0368 74.3927 85.9993 74.789 86.7919 75.5816C87.5845 76.3742 87.9808 77.3367 87.9808 78.469V81.1866C87.9808 83.1115 87.3298 84.7251 86.0276 86.0272C84.7254 87.3294 83.1119 87.9805 81.187 87.9805H7.81292C5.88799 87.9805 4.27444 87.3294 2.97228 86.0272C1.67011 84.7251 1.01903 83.1115 1.01903 81.1866V78.469C1.01903 77.3367 1.41534 76.3742 2.20796 75.5816C3.00058 74.789 3.96305 74.3927 5.09537 74.3927H6.45415V25.4767C6.45415 24.0047 6.992 22.7308 8.0677 21.6551C9.1434 20.5794 10.4172 20.0416 11.8893 20.0416H33.6297C33.7429 16.7578 34.7903 13.276 36.7719 9.59595C38.7534 5.91592 41.0464 3.17006 43.6507 1.35836C43.8772 1.13189 44.1602 1.01866 44.4999 1.01866C44.8396 1.01866 45.1227 1.13189 45.3492 1.35836C47.9535 3.17006 50.2464 5.91592 52.228 9.59595C54.2095 13.276 55.2569 16.7578 55.3702 20.0416H77.1106C78.5826 20.0416 79.8565 20.5794 80.9322 21.6551C82.0079 22.7308 82.5457 24.0047 82.5457 25.4767V74.3927H83.9045ZM14.6068 28.1942L14.7767 68.9576C15.0031 67.712 15.6542 66.5797 16.7299 65.5606C17.8056 64.5415 18.9662 63.9188 20.2118 63.6923C20.4382 61.7674 21.3441 60.1255 22.9293 58.7667C24.5146 57.408 26.2697 56.7286 28.1946 56.7286C30.0063 56.7286 31.5915 57.2381 32.9503 58.2572C34.0826 57.2381 35.4414 56.7286 37.0267 56.7286C37.706 56.7286 38.3854 56.8418 39.0648 57.0683V47.2171C38.3854 47.2171 37.9325 46.8774 37.706 46.198L36.5171 41.6122C35.2716 41.2725 34.3657 40.4232 33.7996 39.0645H24.1183C23.2124 39.0645 22.7595 38.6115 22.7595 37.7057V33.6293C22.7595 33.2896 22.901 32.9783 23.1841 32.6952C23.4672 32.4121 24.4013 31.7044 25.9866 30.5721C27.2321 29.6662 28.2512 28.8736 29.0438 28.1942H14.6068ZM33.6297 36.3469V28.1942L25.477 34.3087V36.3469H33.6297ZM48.916 44.4996L49.5954 41.782H39.4045C39.5178 42.2349 39.6593 42.7445 39.8291 43.3106C39.999 43.8768 40.0839 44.2165 40.0839 44.3297C40.0839 44.443 40.1405 44.4996 40.2538 44.4996C40.367 44.4996 40.4236 44.4996 40.4236 44.4996H48.916ZM21.4007 66.24C20.6081 66.24 19.8438 66.4948 19.1078 67.0043C18.3718 67.5139 17.8339 68.165 17.4942 68.9576H71.5057C71.166 68.165 70.6281 67.5139 69.8921 67.0043C69.1561 66.4948 68.3918 66.24 67.5992 66.24C66.6933 66.24 66.2404 65.7871 66.2404 64.8812C66.2404 63.4092 65.7025 62.1354 64.6268 61.0597C63.5511 59.984 62.2773 59.4461 60.8053 59.4461C59.673 59.4461 58.5973 59.7858 57.5782 60.4652C58.5973 62.8431 58.3708 64.0886 56.8988 64.2019C55.8797 64.3151 55.3702 63.8622 55.3702 62.8431C55.3702 61.9372 55.0305 61.1446 54.3511 60.4652C53.6717 59.7858 52.8791 59.4461 51.9732 59.4461C51.0674 59.4461 50.2747 59.7858 49.5954 60.4652C48.916 61.1446 48.5763 61.9372 48.5763 62.8431C48.5763 63.7489 48.1233 64.2019 47.2175 64.2019C46.1984 64.0886 45.7455 63.4375 45.8587 62.2486C45.9719 61.0597 46.4249 60.0123 47.2175 59.1064V47.2171H41.7824V59.1064C42.6882 60.1255 43.1412 61.3711 43.1412 62.8431C43.1412 63.7489 42.6882 64.2019 41.7824 64.2019C40.8765 64.2019 40.4236 63.7489 40.4236 62.8431C40.4236 61.9372 40.0839 61.1446 39.4045 60.4652C38.7251 59.7858 37.9325 59.4461 37.0267 59.4461C36.1208 59.4461 35.3282 59.7858 34.6488 60.4652C33.9694 61.1446 33.6297 61.9372 33.6297 62.8431C33.6297 63.7489 33.1768 64.2019 32.2709 64.2019C30.7989 64.0886 30.4592 62.9563 31.2519 60.8049L31.4217 60.4652C30.4026 59.7858 29.3269 59.4461 28.1946 59.4461C27.1755 59.4461 26.2697 59.7009 25.477 60.2104C24.6844 60.72 24.0333 61.3711 23.5238 62.1637C23.0143 62.9563 22.7595 63.8622 22.7595 64.8812C22.7595 65.7871 22.3066 66.24 21.4007 66.24ZM74.2232 68.9576L74.3931 55.0301C74.3931 45.2922 74.3931 36.3469 74.3931 28.1942H59.956C60.6354 28.7604 61.5979 29.4964 62.8434 30.4022C64.5419 31.6478 65.5327 32.4121 65.8158 32.6952C66.0988 32.9783 66.2404 33.2896 66.2404 33.6293V37.7057C66.2404 38.6115 65.7875 39.0645 64.8816 39.0645H55.2003C54.7474 40.4232 53.8415 41.2725 52.4828 41.6122L51.2938 46.198C51.0674 46.8774 50.6144 47.2171 49.9351 47.2171V57.0683C50.6144 56.8418 51.2938 56.7286 51.9732 56.7286C53.5585 56.7286 54.9172 57.2381 56.0496 58.2572C57.4083 57.2381 58.9936 56.7286 60.8053 56.7286C62.7302 56.7286 64.4853 57.408 66.0705 58.7667C67.6558 60.1255 68.5616 61.7674 68.7881 63.6923C70.0336 63.9188 71.1943 64.5415 72.27 65.5606C73.3457 66.5797 73.9967 67.712 74.2232 68.9576ZM55.3702 28.1942V36.3469H63.5228V34.3087L55.3702 28.1942ZM48.4064 8.15225C47.2741 6.68024 45.9719 5.32146 44.4999 4.07592C43.0279 5.32146 41.7258 6.68024 40.5935 8.15225C41.839 8.83164 43.1412 9.17133 44.4999 9.17133C45.8587 9.17133 47.1609 8.83164 48.4064 8.15225ZM39.0648 10.3603C38.4987 11.3793 38.0457 12.4267 37.706 13.5024C37.3664 14.5781 37.0833 15.484 36.8568 16.22C36.6303 16.956 36.4888 18.2015 36.4322 19.9566C36.3756 21.7117 36.3473 23.0988 36.3473 24.1179C36.3473 25.137 36.3473 27.1751 36.3473 30.2324C36.3473 33.2896 36.3473 35.7807 36.3473 37.7057C36.3473 38.6115 36.8002 39.0645 37.706 39.0645H51.2938C52.1997 39.0645 52.6526 38.6115 52.6526 37.7057C52.6526 35.6675 52.6809 33.1764 52.7375 30.2324C52.7941 27.2884 52.7941 25.2785 52.7375 24.2028C52.6809 23.1271 52.6243 21.74 52.5677 20.0416C52.5111 18.3431 52.3978 17.0975 52.228 16.3049C52.0581 15.5123 51.7751 14.6064 51.3788 13.5874C50.9824 12.5683 50.5012 11.4926 49.9351 10.3603C48.2366 11.3793 46.4249 11.8889 44.4999 11.8889C42.575 11.8889 40.7633 11.3793 39.0648 10.3603ZM9.1717 25.4767V74.3927H79.8282V25.4767C79.8282 24.6841 79.5734 24.033 79.0639 23.5234C78.5543 23.0139 77.9032 22.7591 77.1106 22.7591H55.3702C55.3702 22.9856 55.3702 23.2687 55.3702 23.6084C55.2569 24.6274 55.6532 25.2502 56.5591 25.4767C57.3517 25.5899 60.1259 25.5899 64.8816 25.4767C69.0712 25.4767 72.6946 25.4767 75.7518 25.4767C76.6577 25.4767 77.1106 25.9296 77.1106 26.8354V70.3164C77.1106 71.2222 76.6577 71.6751 75.7518 71.6751H13.248C12.3422 71.6751 11.8893 71.2222 11.8893 70.3164V26.8354C11.8893 25.9296 12.3422 25.4767 13.248 25.4767C26.0432 25.4767 32.6672 25.3634 33.1202 25.137C33.4599 24.7973 33.6297 24.0047 33.6297 22.7591H11.8893C11.0966 22.7591 10.4456 23.0139 9.93602 23.5234C9.42647 24.033 9.1717 24.6841 9.1717 25.4767ZM55.54 77.1102H33.4599L34.3091 78.469H54.6908L55.54 77.1102ZM85.2633 81.1866V78.469C85.2633 77.5632 84.8104 77.1102 83.9045 77.1102H58.7671C58.5406 77.5632 58.201 78.1293 57.748 78.8087C57.2951 79.3749 56.9837 79.7995 56.8139 80.0826C56.644 80.3657 56.4742 80.5921 56.3043 80.762C56.1345 80.9318 55.9929 81.045 55.8797 81.1017C55.7665 81.1583 55.5966 81.1866 55.3702 81.1866C51.7468 81.1866 47.5006 81.1866 42.6316 81.1866C37.7627 81.1866 34.9036 81.1866 34.0543 81.1866C33.2051 81.1866 32.7239 81.0167 32.6106 80.677C32.6106 80.677 32.554 80.6204 32.4408 80.5072L30.2328 77.1102H5.09537C4.18952 77.1102 3.73659 77.5632 3.73659 78.469V81.1866C3.73659 82.3189 4.1329 83.2814 4.92552 84.074C5.71814 84.8666 6.68061 85.2629 7.81292 85.2629H81.187C82.3193 85.2629 83.2817 84.8666 84.0744 84.074C84.867 83.2814 85.2633 82.3189 85.2633 81.1866Z" fill="#191919"/>
</svg>
