<svg width="89" height="89" viewBox="0 0 89 89" fill="none" xmlns="http://www.w3.org/2000/svg">
<path d="M76.0915 9.17133C76.7709 9.28457 77.1106 9.73749 77.1106 10.5301V37.5358C77.1106 48.2928 73.4306 58.5969 66.0705 68.448C58.7105 78.2992 49.8218 84.81 39.4045 87.9805C39.2913 87.9805 39.1781 87.9805 39.0648 87.9805C38.9516 87.9805 38.8384 87.9805 38.7251 87.9805C31.9312 85.9423 25.6469 82.2906 19.8721 77.0253C14.0973 71.7601 9.5114 65.6172 6.11445 58.5969C2.71751 51.5765 1.01903 44.5562 1.01903 37.5358V10.5301C1.01903 9.73749 1.35873 9.28457 2.03812 9.17133L38.7251 1.01866C39.0648 1.01866 51.5203 3.73622 76.0915 9.17133ZM74.3931 37.5358V11.5492L39.0648 3.73622L3.73659 11.5492V37.5358C3.73659 47.6134 7.19015 57.323 14.0973 66.6646C21.0044 76.0062 29.3269 82.2057 39.0648 85.2629C45.4058 83.2247 51.2938 79.7429 56.7289 74.8173C62.1641 69.8917 66.4669 64.1169 69.6373 57.4929C72.8078 50.8688 74.3931 44.2165 74.3931 37.5358ZM10.1908 15.7954L38.7251 9.34118C38.9516 9.34118 48.6895 11.4926 67.9389 15.7954C68.6183 15.9086 68.958 16.3615 68.958 17.1542V37.5358C68.958 46.1414 66.0705 54.5206 60.2957 62.6732C54.5209 70.8259 47.6138 76.3742 39.5744 79.3183C39.3479 79.4315 39.1781 79.4881 39.0648 79.4881C38.9516 79.4881 38.7817 79.4315 38.5553 79.3183C30.5158 76.3742 23.6087 70.8259 17.8339 62.6732C12.0591 54.5206 9.1717 46.1414 9.1717 37.5358V17.1542C9.1717 16.3615 9.5114 15.9086 10.1908 15.7954ZM66.2404 18.1732L39.0648 12.0587L11.8893 18.1732V37.5358C11.8893 45.462 14.5502 53.2467 19.8721 60.8898C25.194 68.533 31.5915 73.7699 39.0648 76.6007C46.5381 73.7699 52.9357 68.533 58.2576 60.8898C63.5794 53.2467 66.2404 45.462 66.2404 37.5358V18.1732ZM24.1183 48.5759C23.2124 48.5759 22.7595 48.123 22.7595 47.2171C22.7595 46.8774 22.8727 46.5943 23.0992 46.3679C24.458 44.6694 26.1564 43.3673 28.1946 42.4614V39.7438C27.0623 39.4041 26.0998 38.6681 25.3072 37.5358C24.5146 36.4035 24.1183 35.2712 24.1183 34.1389C24.1183 33.9124 24.1183 33.7426 24.1183 33.6293C24.1183 33.0632 24.3447 32.6669 24.7977 32.4404C25.2506 32.2139 25.7035 32.2139 26.1564 32.4404C26.6094 32.6669 26.8358 33.1764 26.8358 33.969C26.8358 33.969 26.8358 34.0257 26.8358 34.1389C26.8358 35.4977 27.402 36.4601 28.5343 37.0263C29.2137 35.3278 30.4592 34.2521 32.2709 33.7992C32.2709 33.7992 32.2709 33.7426 32.2709 33.6293C32.2709 31.8176 32.8937 30.289 34.1393 29.0435C33.2334 26.8921 33.4599 25.7031 34.8186 25.4767C35.7245 25.5899 36.234 26.0428 36.3473 26.8354C36.3473 27.0619 36.3473 27.2318 36.3473 27.345C37.2531 27.0053 38.159 26.8354 39.0648 26.8354C39.9707 26.8354 40.8765 27.0053 41.7824 27.345C41.7824 27.2318 41.7824 27.0619 41.7824 26.8354C41.7824 25.9296 42.2353 25.4767 43.1412 25.4767C44.2735 25.3634 44.7264 26.0994 44.4999 27.6847L43.9904 29.0435C45.2359 30.289 45.8587 31.8176 45.8587 33.6293C45.8587 33.7426 45.8587 33.7992 45.8587 33.7992C47.6704 34.2521 48.916 35.3278 49.5954 37.0263C50.7277 36.4601 51.2938 35.4977 51.2938 34.1389C51.2938 33.9124 51.2938 33.7426 51.2938 33.6293C51.2938 32.7235 51.7468 32.2706 52.6526 32.2706C53.5585 32.2706 54.0114 32.7235 54.0114 33.6293C54.0114 33.7426 54.0114 33.9124 54.0114 34.1389C54.0114 34.4786 53.9548 34.8466 53.8415 35.2429C53.7283 35.6392 53.5868 36.0355 53.4169 36.4318C53.2471 36.8281 53.0489 37.1961 52.8225 37.5358C52.596 37.8755 52.3412 38.1869 52.0581 38.47C51.7751 38.7531 51.4354 39.0078 51.0391 39.2343C50.6427 39.4608 50.2747 39.6306 49.9351 39.7438V42.4614C51.9732 43.3673 53.6717 44.6694 55.0305 46.3679C55.2569 46.5943 55.3702 46.8774 55.3702 47.2171C55.3702 48.123 54.9172 48.5759 54.0114 48.5759C53.7849 48.5759 53.5302 48.491 53.2471 48.3211C52.964 48.1513 52.7375 47.9248 52.5677 47.6417C52.3978 47.3587 52.0581 47.019 51.5486 46.6227C51.0391 46.2263 50.5012 45.8583 49.9351 45.5187C49.9351 45.8583 49.9351 46.198 49.9351 46.5377C49.9351 47.4436 49.8784 48.4061 49.7652 49.4251C50.5578 49.7648 51.2655 50.331 51.8883 51.1236C52.5111 51.9162 53.0206 52.7655 53.4169 53.6713C53.8132 54.5772 54.0114 55.483 54.0114 56.3889C54.0114 56.5021 54.0114 56.6153 54.0114 56.7286C54.0114 57.6344 53.5585 58.0874 52.6526 58.0874C51.7468 58.0874 51.2938 57.6344 51.2938 56.7286C51.2938 56.6153 51.2938 56.5021 51.2938 56.3889C51.2938 54.4639 50.4446 52.9919 48.7461 51.9728C48.18 53.1052 47.3873 54.1242 46.3683 55.0301C45.3492 55.936 44.1886 56.672 42.8864 57.2381C41.5842 57.8043 40.3104 58.0874 39.0648 58.0874C37.2531 58.0874 35.3848 57.4929 33.4599 56.304C31.5349 55.115 30.1761 53.6713 29.3835 51.9728C27.6851 52.9919 26.8358 54.4639 26.8358 56.3889C26.8358 56.5021 26.8358 56.6153 26.8358 56.7286C26.8358 57.6344 26.3829 58.0874 25.477 58.0874C24.5712 58.0874 24.1183 57.6344 24.1183 56.7286C24.1183 56.6153 24.1183 56.5021 24.1183 56.3889C24.1183 55.0301 24.5429 53.6713 25.3921 52.3125C26.2414 50.9538 27.2321 49.9913 28.3644 49.4251C28.2512 48.4061 28.1946 47.4436 28.1946 46.5377C28.1946 46.198 28.1946 45.8583 28.1946 45.5187C27.402 45.9716 26.7509 46.4528 26.2414 46.9624C25.7318 47.4719 25.3355 47.8682 25.0524 48.1513C24.7693 48.4344 24.458 48.5759 24.1183 48.5759ZM43.1412 33.6293C43.1412 32.497 42.7448 31.5346 41.9522 30.7419C41.1596 29.9493 40.1971 29.553 39.0648 29.553C37.9325 29.553 36.97 29.9493 36.1774 30.7419C35.3848 31.5346 34.9885 32.497 34.9885 33.6293H43.1412ZM30.9122 39.0645V47.2171C30.9122 49.1421 31.5632 50.8688 32.8654 52.3975C34.1676 53.9261 35.7811 54.8603 37.706 55.1999V40.4232C37.706 39.5174 38.159 39.0645 39.0648 39.0645C39.9707 39.0645 40.4236 39.5174 40.4236 40.4232V55.1999C42.3485 54.8603 43.9621 53.9261 45.2643 52.3975C46.5664 50.8688 47.2175 49.1421 47.2175 47.2171V39.0645C47.2175 38.2718 46.9627 37.6208 46.4532 37.1112C45.9436 36.6017 45.2926 36.3469 44.4999 36.3469H33.6297C32.8371 36.3469 32.186 36.6017 31.6765 37.1112C31.1669 37.6208 30.9122 38.2718 30.9122 39.0645Z" fill="#191919"/>
</svg>
