<svg width="48" height="48" viewBox="0 0 48 48" fill="none" xmlns="http://www.w3.org/2000/svg">
<g clip-path="url(#clip0_391_106)">
<path d="M6.93927 4.11401H28.8282C29.1387 4.11401 29.4337 4.19162 29.7131 4.34687C29.9925 4.50211 30.2254 4.6884 30.4117 4.90574L35.7675 12.0779V41.8841C35.7675 42.443 35.5734 42.9165 35.1853 43.3046C34.7972 43.6927 34.3238 43.8867 33.7649 43.8867H2.00261C1.44374 43.8867 0.970255 43.6927 0.582153 43.3046C0.194051 42.9165 0 42.443 0 41.8841V12.0779L5.35581 4.90574C5.5421 4.6884 5.77496 4.50211 6.05439 4.34687C6.33383 4.19162 6.62879 4.11401 6.93927 4.11401ZM31.8089 16.0365H3.95864V39.8815H31.8089V16.0365ZM30.7843 12.0779L27.8036 8.11922H7.96386L4.98323 12.0779H30.7843ZM11.9225 20.0417V24.0004C11.9225 25.6459 12.5047 27.0508 13.669 28.2152C14.8333 29.3795 16.2382 29.9616 17.8837 29.9616C19.5293 29.9616 20.9342 29.3795 22.0985 28.2152C23.2628 27.0508 23.845 25.6459 23.845 24.0004V20.0417H27.8036V24.0004C27.8036 25.3665 27.5553 26.655 27.0585 27.8659C26.5307 29.0767 25.8166 30.1324 24.9162 31.0328C24.0158 31.9332 22.9601 32.6473 21.7492 33.1751C20.5384 33.6719 19.2499 33.9203 17.8837 33.9203C16.5176 33.9203 15.2291 33.6719 14.0183 33.1751C12.8074 32.6473 11.7517 31.9332 10.8513 31.0328C9.95094 30.1324 9.23683 29.0767 8.70901 27.8659C8.21224 26.655 7.96386 25.3665 7.96386 24.0004V20.0417H11.9225Z" fill="#191919"/>
</g>
<defs>
<clipPath id="clip0_391_106">
<rect width="47.69" height="48" fill="white" transform="matrix(1 0 0 -1 0 48)"/>
</clipPath>
</defs>
</svg>
