<svg width="39" height="39" viewBox="0 0 39 39" fill="none" xmlns="http://www.w3.org/2000/svg">
<path d="M6.5127 8.11208C6.5127 9.02614 6.19532 9.80056 5.56056 10.4353C4.92579 11.0701 4.16407 11.3875 3.2754 11.3875C2.36133 11.3875 1.58692 11.0701 0.95215 10.4353C0.317383 9.80056 0 9.02614 0 8.11208C0 7.22341 0.317383 6.46169 0.95215 5.82692C1.58692 5.19215 2.36133 4.87477 3.2754 4.87477C4.16407 4.87477 4.92579 5.19215 5.56056 5.82692C6.19532 6.46169 6.5127 7.22341 6.5127 8.11208ZM6.62696 13.7869H0.114258V34.1248H6.62696V13.7869ZM16.8721 13.7869H10.4356V34.1248H16.834V23.4607C16.834 21.9627 17.2276 20.8201 18.0147 20.033C18.8272 19.2205 19.7222 18.8015 20.6997 18.7762C21.6773 18.7508 22.5596 19.1189 23.3467 19.8807C24.1592 20.6424 24.5655 21.8357 24.5655 23.4607V34.1248H31.002V21.2517C31.002 18.7381 30.3799 16.8465 29.1358 15.5769C27.917 14.3074 26.5079 13.5393 24.9082 13.2727C23.3086 13.0061 21.7344 13.1648 20.1856 13.7488C18.6114 14.3582 17.4942 15.2722 16.834 16.491L16.8721 13.7869Z" fill="white"/>
</svg>
