<svg width="39" height="39" viewBox="0 0 39 39" fill="none" xmlns="http://www.w3.org/2000/svg">
<g clip-path="url(#clip0_391_388)">
<path d="M33.211 9.17813C32.627 9.45743 32.0113 9.68594 31.3638 9.86368C30.7164 10.0414 30.0498 10.1684 29.3643 10.2445H29.2881C29.9991 9.83829 30.6084 9.31778 31.1163 8.68301C31.6241 8.04825 32.0049 7.33731 32.2588 6.5502L32.2969 6.51211C31.6114 6.89297 30.9068 7.22305 30.1832 7.50235C29.4595 7.78165 28.7168 7.99747 27.9551 8.14981C27.3457 7.48965 26.6094 6.9628 25.7461 6.56924C24.8828 6.17569 23.9688 5.97891 23.0039 5.97891C21.125 5.97891 19.5191 6.64541 18.1861 7.97842C16.8531 9.31143 16.1865 10.9174 16.1865 12.7963C16.1865 13.0756 16.2056 13.3485 16.2437 13.6152C16.2818 13.8818 16.3262 14.142 16.377 14.3959V14.3578C14.9551 14.2817 13.584 14.0658 12.2637 13.7104C10.9688 13.3295 9.72462 12.8344 8.53126 12.225C7.3379 11.6156 6.23341 10.892 5.21778 10.0541C4.17676 9.21622 3.23731 8.28946 2.39942 7.27383L2.36133 7.23574C2.08203 7.71817 1.85987 8.25137 1.69483 8.83536C1.52979 9.41934 1.44727 10.0287 1.44727 10.6635C1.44727 11.8315 1.72657 12.9169 2.28516 13.9198C2.84375 14.9228 3.58008 15.7289 4.49415 16.3383C3.91016 16.3129 3.35792 16.224 2.83741 16.0717C2.3169 15.9194 1.82813 15.7162 1.3711 15.4623H1.40918V15.5385C1.40918 17.1889 1.92334 18.6362 2.95166 19.8803C3.97999 21.1244 5.26856 21.8989 6.81739 22.2035H6.85548C6.57618 22.2797 6.29054 22.3432 5.99854 22.394C5.70655 22.4448 5.39552 22.4701 5.06544 22.4701C4.83692 22.4701 4.61475 22.4574 4.39893 22.4321C4.18311 22.4067 3.96094 22.3686 3.73243 22.3178H3.77051C4.22755 23.6889 5.0337 24.8124 6.18897 25.6884C7.34425 26.5644 8.65822 27.0151 10.1309 27.0405C8.98829 27.9545 7.69972 28.6718 6.26515 29.1923C4.83057 29.7128 3.31348 29.9731 1.71387 29.9731C1.40918 29.9731 1.11719 29.9604 0.837892 29.935C0.558595 29.9096 0.279297 29.8842 0 29.8588H0.076172C1.54883 30.8237 3.16749 31.579 4.93214 32.1249C6.69679 32.6708 8.54396 32.9438 10.4736 32.9438C13.5967 32.9438 16.3643 32.3471 18.7764 31.1537C21.1885 29.9858 23.2134 28.475 24.8511 26.6215C26.4888 24.768 27.7266 22.6987 28.5645 20.4135C29.4024 18.1029 29.8213 15.8305 29.8213 13.5961C29.8213 13.4438 29.8213 13.2914 29.8213 13.1391C29.8213 12.9867 29.8213 12.8471 29.8213 12.7201C30.4815 12.2377 31.0909 11.7045 31.6495 11.1205C32.2081 10.5365 32.7159 9.91446 33.1729 9.2543L33.211 9.17813Z" fill="white"/>
</g>
<defs>
<clipPath id="clip0_391_388">
<rect width="38.44" height="38.44" fill="white" transform="matrix(1.01457 0 0 -1.01457 0 38.9995)"/>
</clipPath>
</defs>
</svg>
